<?xml version="1.0" standalone="no"?>
<!DOCTYPE svg PUBLIC "-//W3C//DTD SVG 20010904//EN"
 "http://www.w3.org/TR/2001/REC-SVG-20010904/DTD/svg10.dtd">
<svg version="1.0" xmlns="http://www.w3.org/2000/svg"
 width="349.000000pt" height="159.000000pt" viewBox="0 0 349.000000 159.000000"
 preserveAspectRatio="xMidYMid meet">

<g transform="translate(0.000000,159.000000) scale(0.100000,-0.100000)"
fill="#000000" stroke="none">
<path d="M1005 1535 c-359 -85 -669 -253 -908 -490 l-79 -78 24 -22 c12 -13
74 -69 137 -124 l115 -101 35 33 c195 183 467 330 716 388 l95 21 0 199 c0
183 -1 199 -17 198 -10 0 -63 -11 -118 -24z"/>
<path d="M1390 1050 c-59 -59 -29 -148 53 -157 48 -6 66 -25 46 -49 -17 -20
-47 -17 -59 6 -11 21 -54 27 -65 9 -11 -17 15 -66 41 -78 46 -21 115 -9 136
23 4 6 8 34 8 62 0 61 -13 75 -73 83 -37 5 -42 9 -42 31 0 30 35 40 55 15 7
-8 23 -15 36 -15 20 0 24 5 24 29 0 40 -32 61 -92 61 -34 0 -54 -6 -68 -20z"/>
<path d="M1580 919 l0 -150 28 3 c26 3 27 6 30 61 l3 58 32 -3 c32 -3 32 -4
35 -61 3 -57 4 -58 30 -55 l27 3 3 148 3 147 -30 0 c-29 0 -30 -1 -33 -57 -3
-57 -3 -58 -33 -58 -30 0 -30 1 -33 58 -3 56 -4 57 -32 57 l-30 0 0 -151z"/>
<path d="M1840 1062 c0 -10 -50 -252 -56 -274 -4 -15 1 -18 26 -18 23 0 33 6
40 25 7 17 17 25 35 25 15 0 31 -9 41 -25 16 -24 48 -34 58 -17 4 7 -6 62 -40
220 l-15 72 -45 0 c-24 0 -44 -3 -44 -8z m60 -137 c0 -14 0 -28 1 -32 0 -5 -7
-9 -15 -11 -12 -3 -16 5 -16 26 0 16 3 32 7 35 13 14 23 6 23 -18z"/>
<path d="M2002 923 l3 -148 30 0 c29 0 30 1 30 50 0 28 4 52 10 54 5 1 21 -21
35 -50 22 -47 29 -54 58 -57 41 -4 41 6 -2 85 l-33 62 33 71 c19 39 34 73 34
76 0 3 -15 4 -32 2 -29 -3 -37 -10 -60 -56 -15 -29 -30 -51 -35 -50 -4 2 -8
26 -8 53 0 49 0 50 -34 53 l-33 3 4 -148z"/>
<path d="M2220 1040 c0 -27 3 -30 30 -30 l29 0 3 -117 3 -118 28 0 29 0 1 115
2 115 33 3 c28 3 32 7 32 33 l0 29 -95 0 -95 0 0 -30z"/>
<path d="M2431 963 c-13 -60 -27 -123 -31 -142 -11 -41 -6 -51 26 -51 17 0 27
8 34 26 8 20 16 25 38 22 16 -2 31 -12 37 -25 7 -16 18 -23 37 -23 16 0 28 4
28 8 0 4 -13 70 -30 145 -16 76 -30 140 -30 142 0 3 -20 5 -44 5 l-43 0 -22
-107z m79 -38 c0 -14 0 -28 1 -32 0 -5 -7 -9 -15 -11 -12 -3 -16 5 -16 26 0
16 3 32 7 35 13 14 23 6 23 -18z"/>
<path d="M1065 958 c-234 -58 -420 -156 -565 -295 l-75 -73 75 -69 c41 -39 83
-73 92 -76 12 -4 39 11 82 47 140 116 274 179 471 223 6 2 10 52 10 126 l0
124 -25 2 c-14 1 -43 -3 -65 -9z"/>
<path d="M1364 656 c-12 -31 1 -51 34 -54 l32 -3 0 -115 0 -114 30 0 30 0 0
115 0 115 30 0 c28 0 30 3 30 35 l0 35 -90 0 c-70 0 -92 -3 -96 -14z"/>
<path d="M1580 520 l0 -150 96 0 95 0 -3 28 c-3 26 -6 27 -66 30 -62 3 -63 3
-60 30 3 25 6 27 53 27 49 0 50 1 50 30 0 29 -2 30 -52 33 -48 3 -53 5 -53 27
0 23 4 24 63 27 62 3 62 3 62 33 l0 30 -92 3 -93 3 0 -151z"/>
<path d="M1832 660 c-32 -14 -42 -49 -42 -149 0 -74 3 -93 21 -115 18 -22 28
-26 75 -26 64 0 94 23 94 70 0 26 -3 30 -29 30 -21 0 -30 -6 -34 -21 -4 -16
-12 -20 -34 -17 l-28 3 0 80 0 80 33 3 c27 3 32 0 32 -17 0 -17 6 -21 30 -21
26 0 30 3 30 29 0 45 -29 72 -80 77 -25 2 -55 -1 -68 -6z"/>
<path d="M2007 663 c-2 -4 -5 -72 -5 -151 l0 -143 31 3 c30 3 32 5 34 48 1 25
2 51 2 58 1 9 11 12 29 10 26 -3 27 -6 30 -60 3 -57 4 -58 32 -58 l30 0 0 151
0 150 -27 -3 c-27 -3 -28 -6 -31 -61 l-3 -58 -32 3 c-32 3 -32 3 -32 58 0 52
-1 55 -27 58 -14 2 -28 0 -31 -5z"/>
<path d="M2220 521 l0 -151 30 0 30 0 0 62 c0 70 9 69 37 -7 17 -47 21 -50 56
-53 l38 -3 -3 148 -3 148 -27 3 -28 3 0 -67 c0 -79 -10 -77 -44 8 -19 47 -25
53 -54 56 l-32 3 0 -150z"/>
<path d="M2473 660 c-35 -15 -43 -42 -43 -149 0 -126 10 -141 95 -141 85 0 95
15 95 144 0 125 -11 146 -80 152 -25 2 -55 0 -67 -6z m82 -145 l0 -80 -30 0
-30 0 -3 69 c-4 87 1 98 35 94 28 -3 28 -3 28 -83z"/>
<path d="M2649 668 c-1 -2 -2 -70 -2 -151 l-2 -148 95 3 c93 3 94 3 95 28 0
24 -4 25 -65 30 l-65 5 -1 115 -2 115 -26 3 c-14 2 -26 2 -27 0z"/>
<path d="M2905 660 c-46 -18 -54 -57 -46 -232 2 -35 38 -58 90 -58 78 0 93 19
99 122 5 101 -8 150 -44 167 -29 13 -70 13 -99 1z m83 -125 c5 -86 -3 -107
-36 -103 -27 3 -27 4 -30 86 l-3 83 33 -3 c33 -3 33 -3 36 -63z"/>
<path d="M3113 660 c-35 -15 -43 -42 -43 -149 0 -125 11 -141 93 -141 43 0 58
5 76 24 19 20 22 33 19 87 l-3 64 -49 0 c-46 0 -49 -2 -52 -27 -2 -21 2 -27
19 -30 16 -2 22 -10 22 -28 0 -21 -5 -25 -30 -25 l-30 0 -3 83 -3 82 29 0 c16
0 35 -7 42 -15 18 -22 54 -15 58 11 5 35 -29 66 -78 70 -25 2 -55 0 -67 -6z"/>
<path d="M3278 665 c-3 -3 13 -42 35 -87 36 -74 39 -87 35 -144 l-4 -64 33 0
33 0 0 73 c0 62 5 83 35 146 19 40 35 75 35 77 0 3 -15 4 -32 2 -26 -2 -36
-10 -47 -35 -19 -42 -28 -41 -47 2 -11 28 -20 35 -42 35 -16 0 -31 -2 -34 -5z"/>
<path d="M1045 427 c-95 -38 -162 -77 -211 -119 -67 -59 -66 -60 31 -158 l88
-88 54 44 c29 24 72 53 93 64 40 20 40 21 40 79 0 32 3 92 6 134 6 62 4 77 -7
77 -8 0 -50 -15 -94 -33z"/>
</g>
</svg>
